<svg width="32" height="32" viewBox="0 0 32 32" fill="none" xmlns="http://www.w3.org/2000/svg">
<circle cx="16" cy="16" r="16" fill="#ABE6CF"/>
<path fill-rule="evenodd" clip-rule="evenodd" d="M24.781 9.469C24.8508 9.53867 24.9062 9.62143 24.944 9.71255C24.9818 9.80367 25.0013 9.90135 25.0013 10C25.0013 10.0986 24.9818 10.1963 24.944 10.2874C24.9062 10.3786 24.8508 10.4613 24.781 10.531L14.281 21.031C14.2113 21.1008 14.1285 21.1563 14.0374 21.1941C13.9463 21.2319 13.8486 21.2513 13.75 21.2513C13.6513 21.2513 13.5536 21.2319 13.4625 21.1941C13.3714 21.1563 13.2886 21.1008 13.219 21.031L7.96897 15.781C7.82814 15.6402 7.74902 15.4492 7.74902 15.25C7.74902 15.0508 7.82814 14.8598 7.96897 14.719C8.1098 14.5782 8.30081 14.4991 8.49997 14.4991C8.69913 14.4991 8.89014 14.5782 9.03097 14.719L13.75 19.4395L23.719 9.469C23.7886 9.39915 23.8714 9.34374 23.9625 9.30593C24.0536 9.26812 24.1513 9.24866 24.25 9.24866C24.3486 9.24866 24.4463 9.26812 24.5374 9.30593C24.6285 9.34374 24.7113 9.39915 24.781 9.469Z" fill="#27AE60"/>
</svg>

 