<svg width="64" height="64" viewBox="0 0 64 64" fill="none" xmlns="http://www.w3.org/2000/svg">
<rect width="64" height="64" rx="32" fill="#00B87B"/>
<path fill-rule="evenodd" clip-rule="evenodd" d="M18 21C18 20.2044 18.3161 19.4413 18.8787 18.8787C19.4413 18.3161 20.2044 18 21 18H27C27.7956 18 28.5587 18.3161 29.1213 18.8787C29.6839 19.4413 30 20.2044 30 21V27C30 27.7956 29.6839 28.5587 29.1213 29.1213C28.5587 29.6839 27.7956 30 27 30H21C20.2044 30 19.4413 29.6839 18.8787 29.1213C18.3161 28.5587 18 27.7956 18 27V21ZM21 20C20.7348 20 20.4804 20.1054 20.2929 20.2929C20.1054 20.4804 20 20.7348 20 21V27C20 27.2652 20.1054 27.5196 20.2929 27.7071C20.4804 27.8946 20.7348 28 21 28H27C27.2652 28 27.5196 27.8946 27.7071 27.7071C27.8946 27.5196 28 27.2652 28 27V21C28 20.7348 27.8946 20.4804 27.7071 20.2929C27.5196 20.1054 27.2652 20 27 20H21ZM34 21C34 20.2044 34.3161 19.4413 34.8787 18.8787C35.4413 18.3161 36.2044 18 37 18H43C43.7956 18 44.5587 18.3161 45.1213 18.8787C45.6839 19.4413 46 20.2044 46 21V27C46 27.7956 45.6839 28.5587 45.1213 29.1213C44.5587 29.6839 43.7956 30 43 30H37C36.2044 30 35.4413 29.6839 34.8787 29.1213C34.3161 28.5587 34 27.7956 34 27V21ZM37 20C36.7348 20 36.4804 20.1054 36.2929 20.2929C36.1054 20.4804 36 20.7348 36 21V27C36 27.2652 36.1054 27.5196 36.2929 27.7071C36.4804 27.8946 36.7348 28 37 28H43C43.2652 28 43.5196 27.8946 43.7071 27.7071C43.8946 27.5196 44 27.2652 44 27V21C44 20.7348 43.8946 20.4804 43.7071 20.2929C43.5196 20.1054 43.2652 20 43 20H37ZM18 37C18 36.2044 18.3161 35.4413 18.8787 34.8787C19.4413 34.3161 20.2044 34 21 34H27C27.7956 34 28.5587 34.3161 29.1213 34.8787C29.6839 35.4413 30 36.2044 30 37V43C30 43.7956 29.6839 44.5587 29.1213 45.1213C28.5587 45.6839 27.7956 46 27 46H21C20.2044 46 19.4413 45.6839 18.8787 45.1213C18.3161 44.5587 18 43.7956 18 43V37ZM21 36C20.7348 36 20.4804 36.1054 20.2929 36.2929C20.1054 36.4804 20 36.7348 20 37V43C20 43.2652 20.1054 43.5196 20.2929 43.7071C20.4804 43.8946 20.7348 44 21 44H27C27.2652 44 27.5196 43.8946 27.7071 43.7071C27.8946 43.5196 28 43.2652 28 43V37C28 36.7348 27.8946 36.4804 27.7071 36.2929C27.5196 36.1054 27.2652 36 27 36H21ZM34 37C34 36.2044 34.3161 35.4413 34.8787 34.8787C35.4413 34.3161 36.2044 34 37 34H43C43.7956 34 44.5587 34.3161 45.1213 34.8787C45.6839 35.4413 46 36.2044 46 37V43C46 43.7956 45.6839 44.5587 45.1213 45.1213C44.5587 45.6839 43.7956 46 43 46H37C36.2044 46 35.4413 45.6839 34.8787 45.1213C34.3161 44.5587 34 43.7956 34 43V37ZM37 36C36.7348 36 36.4804 36.1054 36.2929 36.2929C36.1054 36.4804 36 36.7348 36 37V43C36 43.2652 36.1054 43.5196 36.2929 43.7071C36.4804 43.8946 36.7348 44 37 44H43C43.2652 44 43.5196 43.8946 43.7071 43.7071C43.8946 43.5196 44 43.2652 44 43V37C44 36.7348 43.8946 36.4804 43.7071 36.2929C43.5196 36.1054 43.2652 36 43 36H37Z" fill="white"/>
</svg>

