<svg width="48" height="48" viewBox="0 0 48 48" fill="none" xmlns="http://www.w3.org/2000/svg">
<rect width="48" height="48" rx="24" fill="#64C9C3"/>
<path fill-rule="evenodd" clip-rule="evenodd" d="M24 34.5C26.7848 34.5 29.4555 33.3938 31.4246 31.4246C33.3938 29.4555 34.5 26.7848 34.5 24C34.5 21.2152 33.3938 18.5445 31.4246 16.5754C29.4555 14.6062 26.7848 13.5 24 13.5C21.2152 13.5 18.5445 14.6062 16.5754 16.5754C14.6062 18.5445 13.5 21.2152 13.5 24C13.5 26.7848 14.6062 29.4555 16.5754 31.4246C18.5445 33.3938 21.2152 34.5 24 34.5ZM24 36C27.1826 36 30.2348 34.7357 32.4853 32.4853C34.7357 30.2348 36 27.1826 36 24C36 20.8174 34.7357 17.7652 32.4853 15.5147C30.2348 13.2643 27.1826 12 24 12C20.8174 12 17.7652 13.2643 15.5147 15.5147C13.2643 17.7652 12 20.8174 12 24C12 27.1826 13.2643 30.2348 15.5147 32.4853C17.7652 34.7357 20.8174 36 24 36Z" fill="white"/>
<path d="M25.3949 21.882L21.9599 22.3125L21.8369 22.8825L22.5119 23.007C22.9529 23.112 23.0399 23.271 22.9439 23.7105L21.8369 28.9125C21.5459 30.258 21.9944 30.891 23.0489 30.891C23.8664 30.891 24.8159 30.513 25.2464 29.994L25.3784 29.37C25.0784 29.634 24.6404 29.739 24.3494 29.739C23.9369 29.739 23.7869 29.4495 23.8934 28.9395L25.3949 21.882Z" fill="white"/>
<path d="M24 20.25C24.8284 20.25 25.5 19.5784 25.5 18.75C25.5 17.9216 24.8284 17.25 24 17.25C23.1716 17.25 22.5 17.9216 22.5 18.75C22.5 19.5784 23.1716 20.25 24 20.25Z" fill="white"/>
</svg>
   
