<svg width="134" height="52" viewBox="0 0 134 52" fill="none" xmlns="http://www.w3.org/2000/svg">
<path d="M28.1213 45.2113C27.8483 45.2113 27.7118 45.0749 27.7118 44.8018V40.9648L23.435 44.8018C23.2833 44.9434 23.1266 45.047 22.9648 45.1128C22.8031 45.1785 22.6464 45.2113 22.4947 45.2113H21.6151C21.4635 45.2113 21.2991 45.1785 21.1222 45.1128C20.9452 45.047 20.7709 44.9434 20.599 44.8018L15.8065 40.9648V44.8018C15.8065 45.0749 15.67 45.2113 15.397 45.2113H13.9866C13.7136 45.2113 13.5771 45.0749 13.5771 44.8018V35.2624C13.5771 34.9995 13.7136 34.8681 13.9866 34.8681H15.2909C15.6246 34.8681 15.9481 34.9995 16.2615 35.2624L23.3743 41.6928L30.9725 35.2624C31.1343 35.1209 31.3062 35.0198 31.4882 34.9591C31.6701 34.8984 31.8572 34.8681 32.0493 34.8681H33.1413C33.4143 34.8681 33.5507 34.9995 33.5507 35.2624V44.8018C33.5507 45.0749 33.4143 45.2113 33.1413 45.2113H28.1213H28.1213ZM39.8902 45.2113C39.1521 45.2113 38.4772 45.0799 37.8655 44.817C37.2538 44.5541 36.728 44.1902 36.2882 43.7251C35.8484 43.26 35.5072 42.7115 35.2646 42.0796C35.0219 41.4477 34.9005 40.7677 34.9005 40.0397C34.9005 39.2915 35.0194 38.6014 35.257 37.9695C35.4945 37.3376 35.8307 36.7917 36.2655 36.3316C36.7002 35.8716 37.226 35.5126 37.8428 35.2548C38.4595 34.997 39.142 34.8681 39.8902 34.8681H47.3215C48.0798 34.8681 48.7648 34.9995 49.3765 35.2624C49.9882 35.5253 50.514 35.8867 50.9537 36.3468C51.3935 36.8068 51.7323 37.3528 51.9699 37.9847C52.2075 38.6167 52.3263 39.3017 52.3263 40.0397C52.3263 40.7677 52.2049 41.4477 51.9623 42.0796C51.7197 42.7115 51.3784 43.2574 50.9386 43.7175C50.4988 44.1775 49.973 44.5415 49.3613 44.8094C48.7497 45.0774 48.0697 45.2113 47.3215 45.2113H39.8902L39.8902 45.2113ZM46.2751 39.0084C46.2751 38.5434 46.2447 38.1591 46.184 37.8558C46.1234 37.5525 46.0223 37.3098 45.8808 37.1279C45.7392 36.9459 45.5547 36.8195 45.3272 36.7487C45.0997 36.6779 44.8191 36.6425 44.4854 36.6425H42.4229C42.1196 36.6425 41.8643 36.6804 41.657 36.7563C41.4497 36.8321 41.2779 36.961 41.1413 37.143C41.0049 37.325 40.9063 37.5677 40.8456 37.871C40.785 38.1743 40.7546 38.5535 40.7546 39.0084V40.6615C40.7546 41.6827 40.8886 42.398 41.1566 42.8075C41.4244 43.217 41.8466 43.4217 42.4229 43.4217H44.4854C44.7989 43.4217 45.0669 43.3737 45.2893 43.2777C45.5117 43.1816 45.6963 43.0274 45.8428 42.8151C45.9894 42.6027 46.0981 42.3196 46.1689 41.9658C46.2397 41.6119 46.2751 41.1772 46.2751 40.6615V39.0084L46.2751 39.0084ZM58.3775 45.2113C57.6596 45.2113 56.9974 45.0824 56.3907 44.8246C55.7841 44.5668 55.2584 44.2078 54.8135 43.7478C54.3686 43.2878 54.0223 42.7418 53.7746 42.1099C53.5269 41.478 53.403 40.7879 53.403 40.0397C53.403 39.3017 53.5218 38.6167 53.7595 37.9847C53.997 37.3528 54.3332 36.8043 54.768 36.3392C55.2027 35.8741 55.726 35.5126 56.3376 35.2548C56.9494 34.997 57.6293 34.8681 58.3775 34.8681H68.7056C68.9785 34.8681 69.1151 34.9995 69.1151 35.2624V36.233C69.1151 36.506 68.9785 36.6425 68.7056 36.6425H61.9264C61.5927 36.6425 61.3121 36.6779 61.0847 36.7487C60.8572 36.8195 60.6727 36.9459 60.5311 37.1279C60.3896 37.3098 60.2885 37.5525 60.2278 37.8558C60.1671 38.1591 60.1368 38.5434 60.1368 39.0084V40.6615C60.1368 41.1772 60.1722 41.6119 60.2429 41.9658C60.3137 42.3196 60.4224 42.6027 60.5691 42.8151C60.7156 43.0274 60.9001 43.1816 61.1226 43.2777C61.345 43.3737 61.613 43.4217 61.9264 43.4217H68.7663C69.0291 43.4217 69.1606 43.5583 69.1606 43.8312V44.8018C69.1606 45.0748 69.0291 45.2113 68.7663 45.2113H58.3775L58.3775 45.2113ZM78.3663 40.4643C78.0933 40.4643 77.9568 40.3329 77.9568 40.0701V39.0843C77.9568 38.8214 78.0933 38.6899 78.3663 38.6899H85.6156C85.8785 38.6899 86.0099 38.7809 86.0099 38.963V40.1914C86.0099 40.3734 85.8785 40.4643 85.6156 40.4643H78.3663V40.4643ZM75.1208 45.2113C74.4029 45.2113 73.7406 45.0824 73.134 44.8246C72.5274 44.5668 72.0016 44.2078 71.5568 43.7478C71.1119 43.2878 70.7656 42.7418 70.5179 42.1099C70.2702 41.478 70.1463 40.7879 70.1463 40.0397C70.1463 39.3017 70.2651 38.6167 70.5028 37.9847C70.7403 37.3528 71.0765 36.8043 71.5113 36.3392C71.946 35.8741 72.4692 35.5126 73.0809 35.2548C73.6926 34.997 74.3725 34.8681 75.1208 34.8681H85.7218C85.9948 34.8681 86.1313 34.9995 86.1313 35.2624V36.233C86.1313 36.506 85.9948 36.6425 85.7218 36.6425H78.6696C78.336 36.6425 78.0554 36.6779 77.8279 36.7487C77.6004 36.8195 77.4159 36.9459 77.2743 37.1279C77.1328 37.3098 77.0317 37.5525 76.971 37.8558C76.9104 38.1591 76.88 38.5434 76.88 39.0084V40.6615C76.88 41.1772 76.9154 41.6119 76.9862 41.9658C77.0569 42.3196 77.1657 42.6027 77.3123 42.8151C77.4588 43.0274 77.6434 43.1816 77.8658 43.2777C78.0882 43.3737 78.3562 43.4217 78.6697 43.4217H85.7673C86.0403 43.4217 86.1768 43.5583 86.1768 43.8312V44.8018C86.1768 45.0748 86.0403 45.2113 85.7673 45.2113H75.1207L75.1208 45.2113ZM100.797 45.2113C100.584 45.2113 100.402 45.1785 100.251 45.1128C100.099 45.047 99.9424 44.9434 99.7806 44.8018L94.5939 40.2975C94.4827 40.2065 94.4069 40.108 94.3663 40.0018C94.3259 39.8956 94.3058 39.7516 94.3058 39.5696V39.1298C94.3058 38.9579 94.3259 38.8315 94.3663 38.7506C94.4069 38.6698 94.4877 38.5939 94.609 38.5231L100.675 35.2624C100.878 35.1512 101.085 35.0577 101.297 34.9819C101.51 34.906 101.737 34.8681 101.98 34.8681H105.043C105.155 34.8681 105.235 34.8934 105.286 34.9439C105.336 34.9945 105.362 35.0552 105.362 35.1259C105.362 35.2372 105.301 35.3231 105.18 35.3837L99.1588 38.6141L106.196 44.5288C106.337 44.6401 106.408 44.7665 106.408 44.908C106.408 44.9889 106.373 45.0596 106.302 45.1203C106.231 45.181 106.12 45.2113 105.968 45.2113H100.797V45.2113ZM87.9511 45.2113C87.6883 45.2113 87.5568 45.0749 87.5568 44.8018V35.2624C87.5568 34.9995 87.6883 34.8681 87.9511 34.8681H93.1682C93.4412 34.8681 93.5777 34.9995 93.5777 35.2624V44.8018C93.5777 45.0749 93.4412 45.2113 93.1682 45.2113H87.9511ZM110.579 45.2113C109.841 45.2113 109.166 45.0799 108.554 44.817C107.942 44.5541 107.417 44.1902 106.977 43.7251C106.537 43.26 106.196 42.7115 105.953 42.0796C105.71 41.4477 105.589 40.7677 105.589 40.0397C105.589 39.2915 105.708 38.6014 105.946 37.9695C106.183 37.3376 106.519 36.7917 106.954 36.3316C107.389 35.8716 107.915 35.5126 108.531 35.2548C109.148 34.997 109.831 34.8681 110.579 34.8681H118.01C118.768 34.8681 119.453 34.9995 120.065 35.2624C120.677 35.5253 121.203 35.8867 121.642 36.3468C122.082 36.8068 122.421 37.3528 122.658 37.9847C122.896 38.6167 123.015 39.3017 123.015 40.0397C123.015 40.7677 122.894 41.4477 122.651 42.0796C122.408 42.7115 122.067 43.2574 121.627 43.7175C121.187 44.1775 120.662 44.5415 120.05 44.8094C119.438 45.0774 118.758 45.2113 118.01 45.2113H110.579L110.579 45.2113ZM116.964 39.0084C116.964 38.5434 116.933 38.1591 116.873 37.8558C116.812 37.5525 116.711 37.3098 116.569 37.1279C116.428 36.9459 116.243 36.8195 116.016 36.7487C115.788 36.6779 115.508 36.6425 115.174 36.6425H113.111C112.808 36.6425 112.553 36.6804 112.346 36.7563C112.138 36.8321 111.966 36.961 111.83 37.143C111.693 37.325 111.595 37.5677 111.534 37.871C111.474 38.1743 111.443 38.5535 111.443 39.0084V40.6615C111.443 41.6827 111.577 42.398 111.845 42.8075C112.113 43.217 112.535 43.4217 113.111 43.4217H115.174C115.487 43.4217 115.755 43.3737 115.978 43.2777C116.2 43.1816 116.385 43.0274 116.531 42.8151C116.678 42.6027 116.787 42.3196 116.858 41.9658C116.928 41.6119 116.964 41.1772 116.964 40.6615V39.0084V39.0084Z" fill="#414862"/>
<path fill-rule="evenodd" clip-rule="evenodd" d="M78.3222 24.2469L78.3225 20.6063L73.2302 22.1274L73.2298 20.9737L78.3226 19.8889L78.322 16.6247L73.2301 15.5114L73.2303 14.2862L78.3231 15.9178L78.3222 12.2042L68.463 4.25024L68.4629 31.5946L78.3222 24.2469Z" fill="#414862"/>
<path fill-rule="evenodd" clip-rule="evenodd" d="M57.4761 24.2469V12.2042L67.3352 4.25024L67.3353 31.5946L64.0506 29.1471L64.0508 13.4277L62.9275 13.822L62.9276 28.3108L60.3925 26.4213V14.7125L59.5231 15.0179L59.5231 25.7732L57.4761 24.2469Z" fill="#414862"/>
</svg>
