<svg width="64" height="64" viewBox="0 0 64 64" fill="none" xmlns="http://www.w3.org/2000/svg">
<rect width="64" height="64" rx="32" fill="#00B87B"/>
<path fill-rule="evenodd" clip-rule="evenodd" d="M19 22C18.7348 22 18.4804 22.1054 18.2929 22.2929C18.1054 22.4804 18 22.7348 18 23V27H28C28.2652 27 28.5196 27.1054 28.7071 27.2929C28.8946 27.4804 29 27.7348 29 28C29 28.506 29.16 29.288 29.612 29.916C30.026 30.492 30.726 31 32 31C33.274 31 33.974 30.492 34.388 29.916C34.84 29.288 35 28.506 35 28C35 27.7348 35.1054 27.4804 35.2929 27.2929C35.4804 27.1054 35.7348 27 36 27H46V23C46 22.7348 45.8946 22.4804 45.7071 22.2929C45.5196 22.1054 45.2652 22 45 22H19ZM46 29H36.898C36.7546 29.7499 36.4525 30.4604 36.012 31.084C35.226 32.176 33.926 33 32 33C30.074 33 28.774 32.176 27.988 31.084C27.5476 30.4604 27.2455 29.7499 27.102 29H18V41C18 41.2652 18.1054 41.5196 18.2929 41.7071C18.4804 41.8946 18.7348 42 19 42H45C45.2652 42 45.5196 41.8946 45.7071 41.7071C45.8946 41.5196 46 41.2652 46 41V29ZM16 23C16 22.2044 16.3161 21.4413 16.8787 20.8787C17.4413 20.3161 18.2044 20 19 20H45C45.7956 20 46.5587 20.3161 47.1213 20.8787C47.6839 21.4413 48 22.2044 48 23V41C48 41.7956 47.6839 42.5587 47.1213 43.1213C46.5587 43.6839 45.7956 44 45 44H19C18.2044 44 17.4413 43.6839 16.8787 43.1213C16.3161 42.5587 16 41.7956 16 41V23Z" fill="white"/>
</svg>
