<svg width="48" height="48" viewBox="0 0 48 48" fill="none" xmlns="http://www.w3.org/2000/svg">
<rect width="48" height="48" rx="24" fill="#64C9C3"/>
<path fill-rule="evenodd" clip-rule="evenodd" d="M33 16.5H15C14.6022 16.5 14.2206 16.658 13.9393 16.9393C13.658 17.2206 13.5 17.6022 13.5 18V30C13.5 30.3978 13.658 30.7794 13.9393 31.0607C14.2206 31.342 14.6022 31.5 15 31.5H33C33.3978 31.5 33.7794 31.342 34.0607 31.0607C34.342 30.7794 34.5 30.3978 34.5 30V18C34.5 17.6022 34.342 17.2206 34.0607 16.9393C33.7794 16.658 33.3978 16.5 33 16.5ZM15 15C14.2044 15 13.4413 15.3161 12.8787 15.8787C12.3161 16.4413 12 17.2044 12 18V30C12 30.7956 12.3161 31.5587 12.8787 32.1213C13.4413 32.6839 14.2044 33 15 33H33C33.7956 33 34.5587 32.6839 35.1213 32.1213C35.6839 31.5587 36 30.7956 36 30V18C36 17.2044 35.6839 16.4413 35.1213 15.8787C34.5587 15.3161 33.7956 15 33 15H15Z" fill="white"/>
</svg>
