<svg width="48" height="48" viewBox="0 0 48 48" fill="none" xmlns="http://www.w3.org/2000/svg">
<rect width="48" height="48" rx="24" fill="#00B87B"/>
<path fill-rule="evenodd" clip-rule="evenodd" d="M28.5 13.5H19.5C19.1022 13.5 18.7206 13.658 18.4393 13.9393C18.158 14.2206 18 14.6022 18 15V33C18 33.3978 18.158 33.7794 18.4393 34.0607C18.7206 34.342 19.1022 34.5 19.5 34.5H28.5C28.8978 34.5 29.2794 34.342 29.5607 34.0607C29.842 33.7794 30 33.3978 30 33V15C30 14.6022 29.842 14.2206 29.5607 13.9393C29.2794 13.658 28.8978 13.5 28.5 13.5ZM19.5 12C18.7044 12 17.9413 12.3161 17.3787 12.8787C16.8161 13.4413 16.5 14.2044 16.5 15V33C16.5 33.7956 16.8161 34.5587 17.3787 35.1213C17.9413 35.6839 18.7044 36 19.5 36H28.5C29.2956 36 30.0587 35.6839 30.6213 35.1213C31.1839 34.5587 31.5 33.7956 31.5 33V15C31.5 14.2044 31.1839 13.4413 30.6213 12.8787C30.0587 12.3161 29.2956 12 28.5 12H19.5Z" fill="white"/>
</svg>

