<svg width="32" height="32" viewBox="0 0 32 32" fill="none" xmlns="http://www.w3.org/2000/svg">
<rect x="0.6" y="0.6" width="30.8" height="30.8" rx="15.4" stroke="#00B87B" stroke-width="1.2"/>
<path fill-rule="evenodd" clip-rule="evenodd" d="M12.6459 17.646C12.6924 17.5994 12.7475 17.5625 12.8083 17.5373C12.869 17.5121 12.9341 17.4991 12.9999 17.4991C13.0657 17.4991 13.1308 17.5121 13.1916 17.5373C13.2523 17.5625 13.3075 17.5994 13.3539 17.646L15.9999 20.293L18.6459 17.646C18.7398 17.5521 18.8671 17.4994 18.9999 17.4994C19.1327 17.4994 19.26 17.5521 19.3539 17.646C19.4478 17.7399 19.5005 17.8672 19.5005 18C19.5005 18.1328 19.4478 18.2601 19.3539 18.354L16.3539 21.354C16.3075 21.4006 16.2523 21.4375 16.1916 21.4627C16.1308 21.4879 16.0657 21.5009 15.9999 21.5009C15.9341 21.5009 15.869 21.4879 15.8083 21.4627C15.7475 21.4375 15.6924 21.4006 15.6459 21.354L12.6459 18.354C12.5994 18.3076 12.5624 18.2524 12.5372 18.1916C12.512 18.1309 12.499 18.0658 12.499 18C12.499 17.9342 12.512 17.8691 12.5372 17.8084C12.5624 17.7476 12.5994 17.6925 12.6459 17.646Z" fill="#414862"/>
<path fill-rule="evenodd" clip-rule="evenodd" d="M16 10.5C16.1326 10.5 16.2598 10.5527 16.3536 10.6464C16.4473 10.7402 16.5 10.8674 16.5 11V20C16.5 20.1326 16.4473 20.2598 16.3536 20.3536C16.2598 20.4473 16.1326 20.5 16 20.5C15.8674 20.5 15.7402 20.4473 15.6464 20.3536C15.5527 20.2598 15.5 20.1326 15.5 20V11C15.5 10.8674 15.5527 10.7402 15.6464 10.6464C15.7402 10.5527 15.8674 10.5 16 10.5Z" fill="#414862"/>
</svg>

