<svg width="64" height="64" viewBox="0 0 64 64" fill="none" xmlns="http://www.w3.org/2000/svg">
<rect width="64" height="64" rx="32" fill="#00B87B"/>
<path fill-rule="evenodd" clip-rule="evenodd" d="M21.7322 45.7C21.5762 46.588 22.4522 47.282 23.2242 46.886L32.0042 42.374L40.7822 46.886C41.5542 47.282 42.4302 46.588 42.2742 45.702L40.6142 36.242L47.6602 29.53C48.3182 28.902 47.9762 27.754 47.0942 27.63L37.2982 26.238L32.9302 17.584C32.847 17.4086 32.7157 17.2604 32.5517 17.1566C32.3876 17.0528 32.1974 16.9977 32.0032 16.9977C31.8091 16.9977 31.6189 17.0528 31.4548 17.1566C31.2907 17.2604 31.1594 17.4086 31.0762 17.584L26.7082 26.24L16.9122 27.632C16.0302 27.756 15.6882 28.904 16.3462 29.532L23.3922 36.244L21.7322 45.704V45.7ZM31.5422 40.166L24.1702 43.954L25.5582 36.04C25.5908 35.8579 25.578 35.6705 25.5212 35.4944C25.4643 35.3183 25.3651 35.1588 25.2322 35.03L19.4202 29.49L27.5242 28.338C27.692 28.3127 27.8512 28.247 27.9881 28.1467C28.125 28.0464 28.2355 27.9144 28.3102 27.762L32.0042 20.446L35.6962 27.762C35.7709 27.9144 35.8815 28.0464 36.0184 28.1467C36.1553 28.247 36.3144 28.3127 36.4822 28.338L44.5862 29.488L38.7742 35.028C38.6409 35.1569 38.5414 35.3167 38.4845 35.4932C38.4277 35.6697 38.4152 35.8575 38.4482 36.04L39.8362 43.954L32.4642 40.166C32.3217 40.0925 32.1636 40.0542 32.0032 40.0542C31.8429 40.0542 31.6848 40.0925 31.5422 40.166Z" fill="white"/>
</svg>

